<svg width="1em" height="1em" viewBox="0 0 24 24" fill="none" xmlns="http://www.w3.org/2000/svg">
<path d="M21.4 11.75C21.4 12.2141 21.2156 12.6592 20.8875 12.9874C20.5593 13.3156 20.1142 13.5 19.65 13.5C19.1859 13.5 18.7408 13.3156 18.4126 12.9874C18.0844 12.6592 17.9 12.2141 17.9 11.75C17.9 11.2859 18.0844 10.8408 18.4126 10.5126C18.7408 10.1844 19.1859 10 19.65 10C20.1142 10 20.5593 10.1844 20.8875 10.5126C21.2156 10.8408 21.4 11.2859 21.4 11.75Z" fill="black"/>
<path d="M9.5 11.7C9.5 12.4161 9.78446 13.1028 10.2908 13.6092C10.7972 14.1155 11.4839 14.4 12.2 14.4C12.9161 14.4 13.6028 14.1155 14.1092 13.6092C14.6155 13.1028 14.9 12.4161 14.9 11.7C14.9 10.9839 14.6155 10.2972 14.1092 9.79081C13.6028 9.28446 12.9161 9 12.2 9C11.4839 9 10.7972 9.28446 10.2908 9.79081C9.78446 10.2972 9.5 10.9839 9.5 11.7Z" fill="black"/>
<path d="M6.5 11.75C6.5 12.2141 6.31563 12.6592 5.98744 12.9874C5.65925 13.3156 5.21413 13.5 4.75 13.5C4.28587 13.5 3.84075 13.3156 3.51256 12.9874C3.18437 12.6592 3 12.2141 3 11.75C3 11.2859 3.18437 10.8408 3.51256 10.5126C3.84075 10.1844 4.28587 10 4.75 10C5.21413 10 5.65925 10.1844 5.98744 10.5126C6.31563 10.8408 6.5 11.2859 6.5 11.75Z" fill="black"/>
</svg>
